<?xml version="1.0" encoding="UTF-8"?>
<svg id="Livello_1" data-name="Livello 1" xmlns="http://www.w3.org/2000/svg" viewBox="0 0 202.68 199.99">
  <defs>
    <style>
      .cls-1 {
        fill: #e9772d;
      }

      .cls-2 {
        fill: #5e6793;
      }

      .cls-3 {
        fill: #1f467f;
        fill-rule: evenodd;
      }

      .cls-4 {
        fill: #c82338;
      }

      .cls-5 {
        fill: #7299a5;
      }

      .cls-6 {
        fill: #eb912a;
      }

      .cls-7 {
        fill: #5b879b;
      }
    </style>
  </defs>
  <path class="cls-1" d="M95.79,135.12h11.09v-30.25h27.9v-10.76h-27.9v-30.25h-11.09v30.25h-27.56v10.76h27.56v30.25Z"/>
  <path class="cls-4" d="M44.37,178.82h9.41v-26.89h24.87v-8.4h-24.87v-27.23h-9.41v27.23h-24.87v8.4h24.87v26.89Z"/>
  <path class="cls-7" d="M148.9,81.68h9.41v-26.89h25.21v-8.07h-25.21v-27.23h-9.41v27.23h-24.87v8.07h24.87v26.89Z"/>
  <path class="cls-2" d="M97.47,199.99h8.07v-19.16h17.14v-7.06h-17.14v-19.16h-8.07v19.16h-16.81v7.06h16.81v19.16Z"/>
  <path class="cls-6" d="M44.7,81.68h8.74v-27.23h25.21v-7.73h-25.21v-27.23h-8.74v27.23h-25.21v7.73h25.21v27.23Z"/>
  <path class="cls-2" d="M177.47,122.01h8.07v-18.82h17.14v-7.39h-17.14v-18.82h-8.07v18.82h-16.81v7.39h16.81v18.82Z"/>
  <path class="cls-3" d="M148.9,178.82h9.41v-26.89h25.21v-8.4h-25.21v-27.23h-9.41v27.23h-24.87v8.4h24.87v26.89Z"/>
  <path class="cls-5" d="M121.34,24.2v-5.71h-16.81V0h-6.05v18.49h-16.81v5.71h16.81v18.49h6.05v-18.49h16.81ZM16.81,120.67h6.05v-18.49h16.81v-5.71h-16.81v-18.15h-6.05v18.15H0v6.05l16.81-.34v18.49Z"/>
</svg>