<?xml version="1.0" encoding="UTF-8"?>
<svg id="Livello_1" data-name="Livello 1" xmlns="http://www.w3.org/2000/svg" viewBox="0 0 199.97 200">
  <defs>
    <style>
      .cls-1 {
        fill: #675f75;
      }

      .cls-1, .cls-2, .cls-3, .cls-4, .cls-5, .cls-6, .cls-7, .cls-8 {
        isolation: isolate;
        opacity: .8;
      }

      .cls-2 {
        fill: #7fa686;
      }

      .cls-3 {
        fill: #847293;
      }

      .cls-4 {
        fill: #aad2a1;
      }

      .cls-9, .cls-5 {
        fill: #3d3647;
      }

      .cls-6 {
        fill: #a396af;
      }

      .cls-7 {
        fill: #5e706d;
      }

      .cls-8 {
        fill: #91c891;
      }
    </style>
  </defs>
  <path class="cls-6" d="M175.52,34l-9.38,66.03-66.03-9.38,9.38-66.03,66.03,9.38h0Z"/>
  <path class="cls-7" d="M24.64,166.04l9.38-66.03,66.03,9.38-9.38,66.03-66.03-9.38h0Z"/>
  <path class="cls-8" d="M34.02,24.71l66.03,9.38-9.38,66.03-66.03-9.38,9.38-66.03h0Z"/>
  <path class="cls-1" d="M166.06,175.43l-66.03-9.38,9.38-66.03,66.03,9.38-9.38,66.03Z"/>
  <path class="cls-5" d="M93.46,200l-40.06-53.32,53.32-40.06,40.06,53.32-53.32,40.06h0Z"/>
  <path class="cls-3" d="M199.97,106.52l-53.32,40.06-40.06-53.32,53.32-40.06,40.06,53.32h0Z"/>
  <path class="cls-4" d="M106.63,0l40.06,53.32-53.32,40.06-40.06-53.32L106.63,0h0Z"/>
  <path class="cls-2" d="M0,93.43l53.32-40.06,40.06,53.32-53.32,40.06L0,93.43Z"/>
  <path class="cls-9" d="M99.98,74.65l25.35,25.35-25.35,25.35-25.35-25.35,25.35-25.35Z"/>
</svg>